# xmcd
#
# Track frame offsets:
#	150
#	11564
#	24324
#	35767
#	48184
#	61074
#	77707
#	88213
#	101070
#	114564
#	125151
#	137553
#
# Disc length: 2000 seconds
#
# Revision: 1
# Processed by: cddbd v1.5.2PL0 Copyright (c) Steve Scherf et al.
# Submitted via: audiograbber 1.83.01
#
DISCID=9b07ce0c
DTITLE=1st Floor - 1st Floor
DYEAR=1900
DGENRE=Pop
TTITLE0=Damned Little Fool
TTITLE1=Trusting Mr Jones
TTITLE2=Nevertheless
TTITLE3=Hey, Mr Flowermann
TTITLE4=In Every Hand
TTITLE5=Turn It On
TTITLE6=Mrs O'Grady
TTITLE7=Moonbeam
TTITLE8=A Rainbow Around Us
TTITLE9=Little Mr So And So
TTITLE10=I Think I Can Change You
TTITLE11=Hush
EXTD=
EXTT0=
EXTT1=
EXTT2=
EXTT3=
EXTT4=
EXTT5=
EXTT6=
EXTT7=
EXTT8=
EXTT9=
EXTT10=
EXTT11=
PLAYORDER=
